<svg xmlns="http://www.w3.org/2000/svg" width="640" height="320" viewBox="0 0 640 320" role="img" aria-labelledby="title desc">
  <title id="title">AI Personal Chef</title>
  <desc id="desc">AI recipe assistant represented by a neural network and recipe card.</desc>
  <defs><linearGradient id="b5" x1="0" y1="0" x2="1" y2="1"><stop stop-color="#080d19"/><stop offset="1" stop-color="#171331"/></linearGradient><filter id="gg"><feGaussianBlur stdDeviation="4"/></filter></defs>
  <rect width="640" height="320" rx="24" fill="url(#b5)"/>
  <text x="48" y="62" fill="#f4f7ff" font-family="Segoe UI,Arial" font-size="26" font-weight="700">AI Personal Chef</text>
  <text x="48" y="94" fill="#91a3c8" font-family="Segoe UI,Arial" font-size="15">SMART RECIPES  ·  PERSONALIZATION  ·  AI</text>
  <circle cx="178" cy="195" r="86" fill="#4c70ff" opacity=".12" filter="url(#gg)"/>
  <g stroke="#668cff" stroke-width="2" opacity=".9"><path d="M104 167 166 134l68 37-66 58-64-18M104 167l64 62M166 134l2 95M234 171l-130 40"/></g>
  <g fill="#8baaff"><circle cx="104" cy="167" r="10"/><circle cx="166" cy="134" r="10"/><circle cx="234" cy="171" r="10"/><circle cx="168" cy="229" r="10"/><circle cx="104" cy="211" r="10"/></g>
  <rect x="306" y="128" width="286" height="142" rx="18" fill="#0b152b" stroke="#314c80"/>
  <rect x="334" y="154" width="84" height="84" rx="14" fill="#162748"/><path d="M353 205c0-24 46-24 46 0M376 173v52" fill="none" stroke="#8e6fff" stroke-width="5" stroke-linecap="round"/>
  <g fill="#7489b2"><rect x="446" y="157" width="114" height="10" rx="5"/><rect x="446" y="181" width="92" height="8" rx="4"/><rect x="446" y="203" width="104" height="8" rx="4"/><rect x="446" y="225" width="70" height="8" rx="4"/></g>
</svg>
