<svg xmlns="http://www.w3.org/2000/svg" width="640" height="320" viewBox="0 0 640 320" role="img" aria-labelledby="title desc">
  <title id="title">Flask Weather API</title>
  <desc id="desc">A dark API interface with cloud and weather data.</desc>
  <defs><linearGradient id="b6" x1="0" y1="0" x2="1" y2="1"><stop stop-color="#080d19"/><stop offset="1" stop-color="#10213d"/></linearGradient><linearGradient id="c6" x1="0" y1="0" x2="1" y2="1"><stop stop-color="#6595ff"/><stop offset="1" stop-color="#8b5cf6"/></linearGradient></defs>
  <rect width="640" height="320" rx="24" fill="url(#b6)"/>
  <text x="48" y="62" fill="#f4f7ff" font-family="Segoe UI,Arial" font-size="26" font-weight="700">Flask Weather API</text>
  <text x="48" y="94" fill="#91a3c8" font-family="Segoe UI,Arial" font-size="15">REST API  ·  PYTHON  ·  REAL-TIME DATA</text>
  <rect x="48" y="130" width="544" height="136" rx="18" fill="#0a1429" stroke="#2a4779"/>
  <rect x="72" y="154" width="132" height="88" rx="14" fill="url(#c6)" opacity=".9"/>
  <path d="M101 211h74c12 0 18-9 18-18s-8-17-18-18c-4-14-17-23-32-23-17 0-31 12-34 28-12 1-21 8-21 17 0 8 5 14 13 14z" fill="#dbe6ff"/>
  <rect x="232" y="154" width="84" height="28" rx="8" fill="#1e6a4a"/><text x="251" y="174" fill="#aef2cf" font-family="Segoe UI,Arial" font-size="13" font-weight="700">GET</text>
  <text x="334" y="175" fill="#c9d6f2" font-family="Consolas,monospace" font-size="15">/api/weather</text>
  <g fill="#63789f"><rect x="232" y="201" width="320" height="8" rx="4"/><rect x="232" y="224" width="255" height="8" rx="4"/></g>
</svg>
